<?xml version="1.0" encoding="utf-8"?>
<!-- Generator: Adobe Illustrator 19.2.0, SVG Export Plug-In . SVG Version: 6.00 Build 0)  -->
<svg version="1.1" id="Laag_1" xmlns="http://www.w3.org/2000/svg" xmlns:xlink="http://www.w3.org/1999/xlink" x="0px" y="0px"
	 viewBox="0 0 345.8 62.4" style="enable-background:new 0 0 345.8 62.4;" xml:space="preserve">
<style type="text/css">
	.st0{fill:#23A0DB;}
	.st1{fill:url(#SVGID_1_);}
	.st2{fill:#F1F2F2;}
	.st3{fill:none;}
	.st4{fill:#020304;}
</style>
<g>
	<rect x="0" class="st0" width="62.4" height="62.4"/>
	
		<linearGradient id="SVGID_1_" gradientUnits="userSpaceOnUse" x1="-2048.6104" y1="-2052.3098" x2="-2050.6194" y2="-2057.8293" gradientTransform="matrix(8.0645 0 0 8.0645 16566.291 16619.4219)">
		<stop  offset="0.2181" style="stop-color:#09597D;stop-opacity:0"/>
		<stop  offset="1" style="stop-color:#09597D"/>
	</linearGradient>
	<polygon class="st1" points="62.3,62.4 62.3,34.5 54.4,20.9 51.3,22.2 50.1,27.1 46.5,29.3 49.6,31.8 51.7,37.1 46.6,40.6 
		40.8,39.1 31.4,23.2 29.9,24.6 28.5,29.1 28.9,34.7 23.3,38.7 15.7,40.6 6.8,43.9 17.6,62.4 	"/>
	<g>
		<path class="st2" d="M6.9,43.9V17.3h12c8.4,0,14.6,4.8,14.6,13.3s-6.2,13.4-14.6,13.4H6.9L6.9,43.9z M25.3,30.5
			c0-3.6-2-6.3-6.4-6.3H15v12.5h3.9C22.9,36.8,25.3,33.9,25.3,30.5z"/>
		<path class="st2" d="M32.7,40.2l4-5.5c2,1.8,5.2,2.6,7.2,2.6c2.6,0,3.9-0.8,3.9-1.8c0-0.9-0.6-1.5-4.1-1.5c-1.1,0-3.4,0-3.9,0.1
			V27c0.6,0,2.9,0,3.9,0c2.6,0,3.7-0.5,3.7-1.3c0-1.2-1.7-1.8-4-1.8c-2.3,0-4.6,0.7-6.5,2.3l-3.8-5c2.3-2.6,6-4.4,11.1-4.4
			c7.3,0,11,3,11,7.4c0,2.9-2.5,5.4-5.8,5.9c3,0.4,6.3,2.6,6.3,6.2c0,4.7-4.6,8-11.6,8C38.9,44.4,35,42.6,32.7,40.2z"/>
	</g>
	<line class="st3" x1="31.2" y1="22.2" x2="52.7" y2="58.9"/>
	<g>
		<path class="st4" d="M87.2,25c-2.2,2.8-5.2,4.2-8.8,4.2c-1.5,0-2.9-0.3-4.2-0.7c-1.3-0.5-2.3-1.2-3.2-2.1s-1.6-1.9-2.1-3.2
			c-0.5-1.3-0.7-2.7-0.7-4.2s0.3-2.9,0.7-4.2s1.2-2.4,2.1-3.3c0.9-0.9,2-1.7,3.2-2.2c1.2-0.5,2.7-0.7,4.2-0.7c1.7,0,3.3,0.3,4.7,0.9
			c1.5,0.6,2.7,1.6,3.7,3l-3.5,3.5c-0.6-0.7-1.2-1.3-1.9-1.9c-0.7-0.5-1.7-0.7-2.7-0.7c-0.8,0-1.6,0.1-2.2,0.5
			c-0.6,0.3-1.2,0.6-1.7,1.1s-0.7,1.1-1,1.7c-0.3,0.6-0.4,1.4-0.4,2.1s0.1,1.5,0.4,2.2s0.6,1.3,1.1,1.8c0.5,0.5,1,0.9,1.7,1.1
			c0.6,0.3,1.3,0.5,2.1,0.5c1.1,0,2.1-0.2,2.8-0.6c0.7-0.4,1.5-1,2.1-1.9L87.2,25z"/>
		<path class="st4" d="M87.7,8.9h8.2c1.1,0,2,0.1,2.9,0.5c0.9,0.3,1.6,0.7,2.2,1.2c0.6,0.6,1.1,1.2,1.4,2c0.3,0.8,0.5,1.8,0.5,2.8
			c0,1.3-0.3,2.4-0.9,3.4c-0.6,0.9-1.3,1.7-2.3,2.3l4.3,7.6h-5.7l-3.3-6.7h-2.2v6.7h-5.1V8.9H87.7z M95.3,17.8
			c0.7,0,1.3-0.2,1.7-0.6c0.5-0.5,0.6-1,0.6-1.7c0-0.7-0.2-1.3-0.6-1.8c-0.5-0.5-1-0.6-1.8-0.6h-2.5v4.7H95.3z"/>
		<path class="st4" d="M104.8,8.9h14.3v4.5h-9v3.1h7.3v4.3H110v3.3h9.7v4.5h-14.8C104.8,28.7,104.8,8.9,104.8,8.9z"/>
		<path class="st4" d="M126.7,8.9h6l7,19.8h-5.7l-1.3-4.1h-6.6l-1.3,4.1h-5.5L126.7,8.9z M131.7,20.8l-2.2-7.3l-2.3,7.3H131.7z"/>
		<path class="st4" d="M142,13.5h-6.1V8.9h17.4v4.6h-6v15.1H142V13.5z"/>
		<path class="st4" d="M154.3,8.9h5.3v19.8h-5.3V8.9z"/>
		<path class="st4" d="M160.1,8.9h5.7l4.5,13.7l4.2-13.7h5.6l-7.2,19.8h-5.5L160.1,8.9z"/>
		<path class="st4" d="M180.6,8.9h14.3v4.5h-9v3.1h7.3v4.3h-7.3v3.3h9.7v4.5h-14.8L180.6,8.9L180.6,8.9z"/>
		<path class="st4" d="M74.7,32.5h6l7,19.8H82l-1.3-4.1h-6.6l-1.3,4.1h-5.5L74.7,32.5z M79.7,44.4l-2.2-7.2l-2.3,7.3L79.7,44.4
			L79.7,44.4z"/>
		<path class="st4" d="M97.1,40.9h8.1v8.9c-1.2,1-2.5,1.7-4.1,2.1c-1.5,0.5-3.1,0.7-4.6,0.7c-1.6,0-3.1-0.3-4.3-0.7
			c-1.3-0.5-2.3-1.2-3.2-2.1c-0.9-0.9-1.6-1.9-2-3.3c-0.5-1.3-0.7-2.7-0.7-4.3c0-1.5,0.3-2.9,0.7-4.2c0.5-1.3,1.2-2.3,2.1-3.3
			c0.9-0.9,1.9-1.7,3.2-2.1c1.3-0.5,2.7-0.7,4.2-0.7c1.7,0,3.2,0.3,4.6,0.8c1.5,0.6,2.7,1.5,3.6,2.7l-3.4,3.4
			c-0.6-0.6-1.3-1.1-1.9-1.5c-0.7-0.4-1.5-0.6-2.5-0.6c-0.8,0-1.6,0.1-2.3,0.5c-0.6,0.3-1.2,0.7-1.7,1.2s-0.7,1.1-1,1.8
			c-0.3,0.7-0.4,1.4-0.4,2.1c0,0.8,0.1,1.6,0.4,2.3s0.6,1.3,1.1,1.8s1,0.9,1.7,1.1c0.6,0.3,1.4,0.4,2.2,0.4c0.6,0,1.3-0.1,1.9-0.3
			c0.6-0.1,1.1-0.5,1.7-0.8v-1.9H97L97.1,40.9L97.1,40.9z"/>
		<path class="st4" d="M107.1,32.5h14.3V37h-9v3.1h7.4v4.3h-7.4v3.3h9.7v4.5h-14.8L107.1,32.5L107.1,32.5z"/>
		<path class="st4" d="M123.2,32.5h4.7l7.6,11v-11h5.2v19.8h-4.5l-7.9-11.3v11.3h-5.2V32.5z"/>
		<path class="st4" d="M161.2,48.5c-2.2,2.8-5.2,4.2-8.8,4.2c-1.5,0-2.9-0.3-4.2-0.7c-1.3-0.5-2.3-1.2-3.2-2.1
			c-0.9-0.9-1.6-1.9-2.1-3.2c-0.5-1.3-0.7-2.7-0.7-4.2s0.3-2.9,0.7-4.2s1.2-2.4,2.1-3.3c0.9-0.9,2-1.7,3.2-2.2
			c1.3-0.5,2.7-0.7,4.2-0.7c1.7,0,3.3,0.3,4.7,0.9c1.4,0.6,2.7,1.6,3.7,3l-3.5,3.5c-0.6-0.7-1.2-1.3-1.9-1.9
			c-0.7-0.5-1.7-0.7-2.7-0.7c-0.8,0-1.6,0.1-2.2,0.5c-0.6,0.3-1.2,0.6-1.7,1.1c-0.5,0.5-0.7,1.1-1,1.7c-0.3,0.6-0.4,1.4-0.4,2.1
			c0,0.7,0.1,1.5,0.4,2.2c0.3,0.7,0.6,1.3,1.1,1.8c0.5,0.5,1,0.9,1.7,1.1c0.6,0.3,1.3,0.5,2.1,0.5c1.1,0,2.1-0.2,2.8-0.6
			c0.7-0.4,1.5-1,2.1-1.9L161.2,48.5z"/>
		<path class="st4" d="M167.1,44.4L160,32.5h6l3.9,7.1l3.6-7.1h5.8l-7.1,11.9v7.9h-5.3V44.4L167.1,44.4z"/>
	</g>
</g>
<rect x="0" class="st3" width="345.9" height="62.4"/>
</svg>
